<?xml version="1.0" encoding="iso-8859-1"?>
<!-- Generator: Adobe Illustrator 19.0.0, SVG Export Plug-In . SVG Version: 6.00 Build 0)  -->
<svg version="1.1" id="Layer_1" xmlns="http://www.w3.org/2000/svg" xmlns:xlink="http://www.w3.org/1999/xlink" x="0px" y="0px"
	 viewBox="0 0 392.527 392.527" style="enable-background:new 0 0 392.527 392.527;" xml:space="preserve">
<path style="fill:#FFFFFF;" d="M213.427,222.255c0-36.525,27.022-66.78,62.125-72.081V32.711c0-6.012-4.848-10.925-10.925-10.925
	H65.839c-6.012,0-10.925,4.848-10.925,10.925v252.832c0,6.012,4.848,10.925,10.925,10.925h177.002V280.63
	C225.064,267.248,213.427,246.109,213.427,222.255z"/>
<path style="fill:#56ACE0;" d="M253.767,157.156V43.572H76.765v231.046H235.86c-13.77-13.317-22.432-31.806-22.432-52.364
	C213.427,193.81,229.912,169.115,253.767,157.156z"/>
<g>
	<path style="fill:#FFC10D;" d="M264.692,291.943v66.327l14.869-12.347c4.008-3.426,9.956-3.426,13.964,0l14.869,12.347v-66.327
		c-6.853,2.133-14.222,3.297-21.786,3.297C278.914,295.24,271.544,294.077,264.692,291.943z"/>
	<path style="fill:#FFC10D;" d="M286.478,171.055c-28.186,0-51.135,22.949-51.135,51.135s22.949,51.135,51.135,51.135
		c28.186,0,51.135-22.949,51.135-51.135S314.664,171.055,286.478,171.055z"/>
</g>
<path style="fill:#194F82;" d="M297.338,150.109V32.711C297.338,14.675,282.664,0,264.627,0H65.839
	C47.738,0,33.064,14.675,33.064,32.711v252.832c0,18.036,14.675,32.711,32.711,32.711h177.067v63.289
	c0.065,9.051,10.214,14.352,17.907,8.339l25.729-21.463l25.729,21.463c7.952,6.335,17.455,0.388,17.907-8.339V280.695
	c17.778-13.317,29.35-34.521,29.35-58.44C359.528,185.665,332.441,155.475,297.338,150.109z M242.906,296.469H65.839
	c-6.012,0-10.925-4.848-10.925-10.925V32.711c0-6.012,4.848-10.925,10.925-10.925h198.853c6.012,0,10.925,4.848,10.925,10.925
	v117.463c-35.103,5.236-62.125,35.556-62.125,72.081c0,23.855,11.572,45.059,29.35,58.44v15.774H242.906z M308.264,358.206
	l-14.869-12.347c-4.008-3.426-9.956-3.426-13.964,0l-14.869,12.347v-66.263c6.853,2.133,14.222,3.297,21.786,3.297
	c7.564,0,14.933-1.164,21.786-3.297v66.327h0.129V358.206z M286.478,273.455c-28.186,0-51.135-22.949-51.135-51.135
	s22.949-51.135,51.135-51.135c28.186,0,51.135,22.95,51.135,51.135C337.613,250.44,314.664,273.455,286.478,273.455z"/>
<rect x="98.551" y="65.358" style="fill:#FFC10D;" width="40.016" height="61.479"/>
<g>
	<path style="fill:#194F82;" d="M149.492,43.572H87.69c-6.012,0-10.925,4.848-10.925,10.925v83.329
		c0,6.012,4.848,10.925,10.925,10.925h61.802c6.012,0,10.925-4.848,10.925-10.925V54.497
		C160.353,48.42,155.504,43.572,149.492,43.572z M138.567,126.901H98.55V65.422h40.016
		C138.567,65.422,138.567,126.901,138.567,126.901z"/>
	<path style="fill:#194F82;" d="M228.296,81.067h-40.081c-6.012,0-10.925-4.848-10.925-10.925s4.848-10.925,10.925-10.925h40.081
		c6.012,0,10.925,4.848,10.925,10.925S234.243,81.067,228.296,81.067z"/>
	<path style="fill:#194F82;" d="M228.296,140.347h-40.081c-6.012,0-10.925-4.848-10.925-10.925s4.848-10.925,10.925-10.925h40.081
		c6.012,0,10.925,4.848,10.925,10.925S234.243,140.347,228.296,140.347z"/>
	<path style="fill:#194F82;" d="M182.526,199.693h-75.895c-6.012,0-10.925-4.848-10.925-10.925c0-6.012,4.848-10.925,10.925-10.925
		h75.895c6.012,0,10.925,4.848,10.925,10.925S188.538,199.693,182.526,199.693z"/>
	<path style="fill:#194F82;" d="M182.526,258.909h-75.895c-6.012,0-10.925-4.848-10.925-10.925s4.848-10.925,10.925-10.925h75.895
		c6.012,0,10.925,4.848,10.925,10.925S188.538,258.909,182.526,258.909z"/>
</g>
<g>
</g>
<g>
</g>
<g>
</g>
<g>
</g>
<g>
</g>
<g>
</g>
<g>
</g>
<g>
</g>
<g>
</g>
<g>
</g>
<g>
</g>
<g>
</g>
<g>
</g>
<g>
</g>
<g>
</g>
</svg>
